PathFileType	4	(X/Y/Z)	c:/Users/goper/Files/vsCode/490R/osim_files/C15/C15_Static03.trc
DataRate	CameraRate	NumFrames	NumMarkers	Units                	OrigDataRate	OrigDataStartFrame	OrigNumFrames
250.00	250.00	10	36	mm	250.0	976	1115
                Frame#	Time	LPSIS			LASIS			LTH1			LTH2			LTH3			LTH4			LLFE			LMFE			LSH1			LSH2			LSH3			LSH4			LLMAL			LMMAL			LCAL			LMTP5			LTOE			LMTP1			RPSIS			RASIS			RTH1			RTH2			RTH3			RTH4			RLFE			RMFE			RSH1			RSH2			RSH3			RSH4			RLMAL			RMMAL			RCAL			RMTP1			RTOE			RMTP5		
		X1	Y1	Z1	X2	Y2	Z2	X3	Y3	Z3	X4	Y4	Z4	X5	Y5	Z5	X6	Y6	Z6	X7	Y7	Z7	X8	Y8	Z8	X9	Y9	Z9	X10	Y10	Z10	X11	Y11	Z11	X12	Y12	Z12	X13	Y13	Z13	X14	Y14	Z14	X15	Y15	Z15	X16	Y16	Z16	X17	Y17	Z17	X18	Y18	Z18	X19	Y19	Z19	X20	Y20	Z20	X21	Y21	Z21	X22	Y22	Z22	X23	Y23	Z23	X24	Y24	Z24	X25	Y25	Z25	X26	Y26	Z26	X27	Y27	Z27	X28	Y28	Z28	X29	Y29	Z29	X30	Y30	Z30	X31	Y31	Z31	X32	Y32	Z32	X33	Y33	Z33	X34	Y34	Z34	X35	Y35	Z35	X36	Y36	Z36

976	3.90000	-423.14966	1028.25769	405.11023	-259.79813	1007.43555	331.58536	-350.01993	634.91333	252.67117	-354.81403	587.54980	265.68155	-298.04367	638.20868	254.91832	-300.25012	592.84296	261.38239	-337.09286	500.45770	278.35989	-331.56836	476.46976	397.24863	-407.66595	396.23529	260.75494	-411.04041	353.61804	251.49702	-346.18387	388.48618	257.48627	-356.95749	345.67206	248.41931	-402.53622	85.16531	288.64734	-382.52176	103.89465	379.60590	-463.65042	58.32977	331.63480	-280.91074	35.83549	263.35156	-224.56418	58.80878	326.36014	-260.32538	38.85442	381.69135	-416.15469	1029.20459	525.12689	-258.63300	1003.17871	586.32916	-332.28293	641.90369	654.48596	-332.91580	595.29932	648.84717	-272.99817	636.42615	640.75891	-281.78564	590.39746	639.95178	-330.23083	497.09567	626.20288	-347.97449	474.09869	509.94702	-420.42291	399.67871	650.85815	-422.67249	356.47125	657.90466	-359.37686	388.04465	652.72827	-371.39853	348.29636	661.01489	-416.40668	84.43204	616.94226	-387.11523	102.97942	529.12787	-476.97998	58.43837	572.53705	-273.46136	37.67309	534.93146	-239.31337	55.67218	588.48346	-299.49841	30.95655	654.00458
977	3.90400	-423.21878	1028.24756	405.11960	-259.83533	1007.43805	331.59845	-350.02539	634.90442	252.67691	-354.78101	587.55652	265.67349	-298.07654	638.20062	254.93393	-300.26328	592.85693	261.39902	-337.11365	500.44751	278.37778	-331.60983	476.46848	397.28076	-407.67645	396.26495	260.76797	-411.07138	353.60928	251.53183	-346.16516	388.47501	257.51111	-356.97437	345.67950	248.43382	-402.53308	85.15910	288.64426	-382.55032	103.88767	379.60065	-463.66226	58.33427	331.61475	-280.91910	35.84591	263.34561	-224.56966	58.78138	326.37967	-260.31683	38.86254	381.69894	-416.16214	1029.17065	525.13513	-258.64676	1003.17065	586.34155	-332.30322	641.91174	654.50958	-332.91495	595.31488	648.87933	-273.02490	636.39355	640.76782	-281.81320	590.38159	639.97217	-330.29819	497.05988	626.18616	-348.00031	474.09906	509.95853	-420.43167	399.67511	650.87805	-422.70709	356.45123	657.92145	-359.41486	388.03036	652.75372	-371.40674	348.29187	661.03009	-416.43243	84.42431	616.95734	-387.17065	102.98959	529.13989	-476.95407	58.41063	572.53271	-273.62283	37.46894	534.90100	-239.32948	55.66038	588.50037	-299.52396	30.95284	654.01819
978	3.90800	-423.20972	1028.23694	405.15771	-259.89191	1007.43121	331.60281	-350.08215	634.92456	252.59879	-354.76160	587.58331	265.67612	-298.08893	638.21661	254.94003	-300.24451	592.87073	261.42633	-337.11166	500.44858	278.38354	-331.63165	476.48523	397.27374	-407.64651	396.27271	260.76108	-411.08762	353.59610	251.53358	-346.17795	388.50073	257.51385	-356.98709	345.67642	248.43604	-402.53510	85.15032	288.66336	-382.54727	103.90536	379.58951	-463.68057	58.33301	331.67068	-280.95798	35.84134	263.34323	-224.57800	58.80470	326.37689	-260.35397	38.86474	381.69351	-416.17828	1029.17090	525.16260	-258.67245	1003.20349	586.35748	-332.29327	641.94537	654.51099	-332.92255	595.33582	648.88110	-273.05731	636.40460	640.77838	-281.80624	590.38733	639.97424	-330.29568	497.08136	626.16309	-347.99829	474.07468	509.95706	-420.43607	399.68344	650.88947	-422.73581	356.47229	657.90332	-359.35083	388.08807	652.73151	-371.27734	348.15695	660.56537	-416.44174	84.46152	616.93451	-387.16309	102.99708	529.13086	-476.97412	58.40279	572.54242	-273.64783	37.48660	534.87720	-239.52757	55.50526	588.40729	-299.54245	30.95644	654.02222
979	3.91200	-423.20612	1028.19678	405.19070	-259.88806	1007.44727	331.61926	-350.11145	634.90356	252.61745	-354.80649	587.56299	265.70978	-298.09006	638.21643	254.94344	-300.25644	592.89630	261.42438	-337.14563	500.44656	278.40198	-331.61554	476.47778	397.27847	-407.62634	396.26239	260.76352	-411.10922	353.59787	251.56621	-346.17990	388.51566	257.51923	-357.00516	345.67877	248.44984	-402.54709	85.16862	288.66211	-382.54688	103.92558	379.59796	-463.65707	58.32972	331.68610	-280.93896	35.85952	263.34680	-224.57407	58.83194	326.35858	-260.33667	38.88016	381.68158	-416.16638	1029.16101	525.21124	-258.66730	1003.21191	586.35199	-332.29596	641.94659	654.50854	-332.91940	595.33972	648.89337	-273.02844	636.43256	640.77936	-281.80301	590.41711	639.97675	-330.27368	497.11502	626.18524	-348.12247	473.92795	509.94089	-420.45404	399.68414	650.87909	-422.72623	356.46475	657.89471	-359.39279	388.06082	652.74420	-371.39053	348.31671	661.01794	-416.45395	84.49599	616.94446	-387.18002	102.99700	529.12787	-476.99246	58.40833	572.53479	-273.60840	37.53880	534.85901	-239.53976	55.52791	588.40332	-299.53696	30.97206	654.00555
980	3.91600	-423.17181	1028.17090	405.23322	-259.92627	1007.43750	331.64896	-350.12372	634.90521	252.64099	-353.73740	588.31854	264.70776	-298.11429	638.21906	254.96875	-300.34137	592.89624	261.55768	-337.13150	500.44839	278.43320	-331.61523	476.46912	397.29895	-407.66742	396.27759	260.79974	-411.09921	353.60550	251.60280	-346.19354	388.50311	257.54474	-356.99930	345.67892	248.47005	-402.56088	85.16866	288.67007	-382.56552	103.91826	379.59610	-463.70190	58.35767	331.71301	-280.96423	35.85463	263.36469	-224.57861	58.84206	326.37668	-260.31418	38.91093	381.69040	-416.16037	1029.16052	525.22870	-258.66571	1003.23425	586.35400	-332.31415	641.95673	654.53284	-332.90207	595.36102	648.93231	-272.46237	636.49066	640.67993	-281.79779	590.42181	639.98431	-330.26389	497.16339	626.19690	-348.13919	473.94019	509.95337	-420.44983	399.69659	650.89124	-422.68951	356.48184	657.93304	-359.37875	388.12561	652.71930	-371.38101	348.33826	661.03595	-416.46341	84.48595	616.95367	-387.25586	102.91462	529.14014	-477.01443	58.45084	572.53729	-273.63684	37.53981	534.86371	-239.32922	55.71959	588.47186	-299.56186	30.97988	654.00989
981	3.92000	-423.19440	1028.17126	405.24942	-259.92911	1007.43964	331.63965	-350.15057	634.93347	252.67033	-354.80481	587.57672	265.75006	-298.11887	638.23163	254.97820	-300.26059	592.90698	261.46365	-337.13126	500.47314	278.43576	-331.58240	476.49054	397.31244	-407.71268	396.28436	260.81143	-411.10452	353.62866	251.59334	-346.16675	388.52161	257.55328	-356.98856	345.70551	248.47722	-402.59509	85.18095	288.69586	-382.55991	103.94975	379.59308	-463.66772	58.31425	331.72217	-280.88834	36.03034	263.24451	-224.58502	58.87455	326.34549	-260.31674	38.92904	381.67554	-416.17838	1029.17236	525.22906	-258.65002	1003.27795	586.36261	-332.29620	641.97876	654.54688	-332.88763	595.37512	648.91895	-273.01794	636.45764	640.79388	-281.76288	590.45465	639.99597	-330.24591	497.16913	626.16785	-348.02179	474.10138	509.99881	-420.42499	399.71207	650.90131	-422.53674	356.47842	657.90631	-359.33325	388.16321	652.71423	-371.37534	348.36118	661.01880	-416.44772	84.48832	616.91516	-387.20053	103.01298	529.14386	-477.05051	58.51173	572.51776	-273.57996	37.60402	534.83704	-239.30534	55.75475	588.45807	-299.56281	31.00950	654.00781
982	3.92400	-423.19904	1028.16138	405.28641	-259.93719	1007.44531	331.67319	-350.14053	634.94421	252.70593	-353.74927	588.38287	264.75223	-298.10925	638.22205	254.99426	-300.25928	592.89435	261.47137	-337.13351	500.49048	278.44803	-331.57373	476.45703	397.32425	-407.68146	396.28134	260.82483	-411.09891	353.63562	251.59389	-346.13736	388.54324	257.55878	-356.97388	345.68747	248.50067	-402.56937	85.20187	288.69073	-382.54242	103.96386	379.58893	-463.66852	58.29425	331.77722	-280.89163	36.02355	263.25720	-224.55330	58.89509	326.36441	-260.29578	38.92711	381.66992	-416.16675	1029.17773	525.26733	-258.63055	1003.28119	586.38177	-332.25677	641.97235	654.54816	-332.82092	595.36639	648.93585	-272.43845	636.49792	640.70990	-281.73257	590.45306	640.00220	-330.17960	497.18756	626.22614	-348.01935	474.13309	510.00256	-420.41336	399.72626	650.90027	-422.65759	356.50937	657.92657	-359.29941	388.16666	652.71082	-371.31656	348.36691	661.02698	-416.44769	84.47925	616.94763	-387.16006	103.00282	529.16864	-477.03659	58.51223	572.52240	-273.56128	37.60912	534.82343	-239.27538	55.76520	588.44525	-299.52478	31.02043	654.00458
983	3.92800	-423.23593	1028.13074	405.29459	-259.94168	1007.45117	331.68433	-350.16205	634.94257	252.72185	-353.76639	588.41791	264.76828	-298.09875	638.23907	255.01694	-300.27423	592.88361	261.52454	-337.14725	500.47726	278.46182	-331.58505	476.43137	397.36597	-407.71042	396.28885	260.84830	-411.10779	353.63715	251.66620	-346.16870	388.51019	257.59082	-356.97501	345.71359	248.52307	-402.58447	85.21618	288.69785	-382.53394	103.94012	379.60855	-463.64990	58.24751	331.72632	-280.88040	36.01720	263.27643	-224.57794	58.90287	326.38306	-260.34283	38.90346	381.68881	-416.15106	1029.15527	525.27454	-258.63272	1003.28613	586.41693	-332.26050	641.93158	654.56732	-332.83011	595.33124	648.96027	-272.44113	636.48413	640.74817	-281.73831	590.44128	640.01404	-330.22678	497.12762	626.21027	-348.01633	474.14142	510.00815	-420.41321	399.70178	650.90448	-422.62790	356.49261	657.97076	-359.25647	388.17786	652.71698	-371.34625	348.36572	661.06317	-416.46405	84.45203	616.93872	-387.18423	102.99712	529.17450	-477.02271	58.51510	572.52679	-273.45404	37.76899	534.93066	-239.30031	55.74717	588.48962	-299.55640	30.99883	654.01031
984	3.93200	-423.25256	1028.10864	405.30804	-259.95630	1007.45868	331.69455	-350.19391	634.92572	252.74715	-353.76401	588.36383	264.79977	-298.10275	638.25348	255.03255	-300.23996	592.91968	261.51025	-337.14420	500.48743	278.48456	-331.58417	476.45059	397.32550	-407.70932	396.23666	260.85162	-411.10483	353.64032	251.63219	-346.15631	388.51419	257.57812	-356.95367	345.72998	248.50821	-402.60016	85.19032	288.70764	-382.55362	103.93500	379.59494	-463.66089	58.20873	331.73978	-280.87589	36.02459	263.26584	-224.55287	58.90137	326.36200	-260.30408	38.90016	381.66574	-416.13541	1029.12439	525.29657	-258.60468	1003.31116	586.39600	-332.25607	641.90753	654.55426	-332.82623	595.31073	648.93597	-272.95370	636.48169	640.84143	-281.69830	590.45264	640.02747	-330.18024	497.14780	626.18762	-348.04025	474.11960	510.04111	-420.40683	399.71182	650.91595	-422.64053	356.51492	657.95239	-358.90256	388.30582	652.82800	-371.31665	348.36389	661.04535	-416.47696	84.43569	616.94177	-387.18185	103.01603	529.16205	-477.01764	58.49977	572.53766	-273.44302	37.78981	534.90521	-239.49387	55.60259	588.38910	-299.55276	30.99699	654.00604
985	3.93600	-423.25717	1028.08813	405.31747	-259.94672	1007.46191	331.70010	-350.20190	634.91577	252.77280	-354.92902	587.54144	265.84106	-298.10092	638.25024	255.02873	-300.28986	592.89526	261.50385	-337.18256	500.47195	278.48325	-331.57697	476.44003	397.31921	-407.74716	396.20477	260.86700	-411.10052	353.63593	251.64775	-346.17517	388.51740	257.58673	-356.96527	345.72351	248.51947	-402.60989	85.18675	288.70123	-382.58069	103.91196	379.59467	-463.59985	58.19879	331.72226	-280.87592	36.01855	263.27188	-224.54466	58.89969	326.36392	-260.32306	38.87814	381.65921	-416.14648	1029.10120	525.30719	-258.61948	1003.31348	586.42065	-332.25925	641.89758	654.56470	-332.83014	595.29816	648.92377	-272.90958	636.48676	640.83014	-281.69000	590.44922	640.02045	-330.11868	497.18661	626.24353	-348.04288	474.08865	510.03714	-420.38950	399.69305	650.91486	-422.63367	356.52975	657.95581	-359.24844	388.18390	652.73853	-371.16879	348.21509	660.59448	-416.49994	84.41817	616.94946	-387.19232	103.00167	529.16394	-477.02917	58.48045	572.54010	-273.45544	37.78449	534.91058	-239.29236	55.73994	588.47009	-299.58221	30.98835	654.00696
